<svg width="30" height="31" viewBox="0 0 30 31" fill="none" xmlns="http://www.w3.org/2000/svg">
<path d="M26.9233 17.2682C26.3618 16.8628 26.0263 16.2118 26.0263 15.5259C26.0263 14.84 26.3618 14.189 26.9226 13.7845L29.5169 11.9128C29.9304 11.6136 30.1013 11.0874 29.9398 10.6076C29.2719 8.63289 28.2158 6.83174 26.7997 5.25302C26.4587 4.87481 25.9089 4.75546 25.4387 4.95851L22.5176 6.22257C21.8812 6.49848 21.1401 6.45895 20.536 6.11562C19.9327 5.77306 19.5279 5.16234 19.4515 4.4811L19.1002 1.32521C19.0443 0.823 18.6647 0.413789 18.1622 0.312261C16.1168 -0.099275 13.9675 -0.10625 11.8859 0.304511C11.3802 0.404489 10.9998 0.8137 10.9439 1.31824L10.5958 4.45397C10.5194 5.13599 10.1146 5.74671 9.5097 6.08927C8.9064 6.43183 8.16764 6.47291 7.52891 6.19622L4.59198 4.92519C4.12573 4.72213 3.57441 4.83994 3.23338 5.21737C1.81257 6.78989 0.751684 8.58871 0.0767182 10.5619C-0.0871008 11.0409 0.0830188 11.5702 0.498079 11.8702L3.07587 13.7302C3.63821 14.1363 3.97372 14.7873 3.97372 15.4732C3.97372 16.1591 3.63821 16.8101 3.07744 17.2147L0.483115 19.0864C0.0696297 19.3855 -0.101277 19.9118 0.0601788 20.3915C0.728056 22.3663 1.78422 24.1674 3.20031 25.7461C3.54133 26.1251 4.09265 26.2452 4.56126 26.0406L7.48244 24.7766C8.11881 24.5007 8.85915 24.5402 9.46402 24.8835C10.0673 25.2261 10.4721 25.8368 10.5485 26.5181L10.8998 29.6739C10.9557 30.1762 11.3353 30.5854 11.8378 30.6869C12.8727 30.8946 13.936 31 15 31C16.038 31 17.0855 30.8969 18.1133 30.6939C18.619 30.5939 18.9994 30.1847 19.0553 29.6801L19.4042 26.5444C19.4806 25.8624 19.8854 25.2517 20.4903 24.9091C21.0936 24.5673 21.8331 24.527 22.4711 24.8022L25.408 26.0732C25.8758 26.277 26.4256 26.1592 26.7666 25.781C28.1874 24.2085 29.2483 22.4097 29.9233 20.4365C30.0871 19.9575 29.917 19.4282 29.5019 19.1282L26.9233 17.2682ZM15 20.9247C11.9552 20.9247 9.48686 18.4958 9.48686 15.4996C9.48686 12.5033 11.9552 10.0744 15 10.0744C18.0448 10.0744 20.5131 12.5033 20.5131 15.4996C20.5131 18.4958 18.0448 20.9247 15 20.9247Z" fill="white"/>
</svg>
